:FULLY-SPECIFIED
:FORCE-ALL-JOINTS-BE-3DOF
:DEGREES
372
root 9.32837 17.0694 16.09 6.23478 4.03151 -3.0328
lfemur -34.8678 5.64417 -17.8193
ltibia 56.3337 -0 0
lfoot -14.6869 11.7716 -0.000461241
ltoes -3.63491 0 0
rfemur -13.2369 6.16868 29.0361
rtibia 29.1154 -0 0
rfoot -19.0699 2.951 -0.00153112
rtoes -14.1231 0 0
lowerback -5.77891 0.252351 0.0883989
upperback -0.716604 0.257847 2.77573
thorax 2.49133 0.118968 2.83313
lowerneck -19.8996 -6.21145 -12.6477
upperneck 21.3405 -8.06238 12.8081
head 11.2965 -3.2102 5.55452
lclavicle 1.14715e-15 5.63225e-15 0
lhumerus -46.5113 -18.1348 97.744
lradius 28.3426 -0 0
lwrist 12.1869 0 0
lhand -14.5546 -22.3531 5.36882e-05
lfingers 7.12502 0 0
lthumb 11.5943 7.30606 3.96161e-05
rclavicle 1.14715e-15 5.63225e-15 0
rhumerus -33.4241 18.2279 -84.1122
rradius 44.1402 -0 0
rwrist -23.188 0 0
rhand -31.0739 -24.2379 -0.00424495
rfingers 7.12502 0 0
rthumb -4.35443 -54.1727 -0.00413453
373
root 9.33553 17.0711 16.2112 6.20458 3.72204 -3.12444
lfemur -35.7151 5.4973 -17.8881
ltibia 55.1608 0 0
lfoot -14.928 11.8154 0
ltoes -3.24045 0 0
rfemur -12.5453 6.16655 29.1828
rtibia 28.751 0 0
rfoot -19.2392 3.15822 0
rtoes -14.1518 0 0
lowerback -5.76685 0.424179 0.180414
upperback -0.679561 0.480195 2.78835
thorax 2.51135 0.230361 2.81161
lowerneck -19.9861 -6.24637 -12.4559
upperneck 21.49 -8.1014 12.524
head 11.3516 -3.24089 5.4093
lclavicle -9.19379e-16 1.07344e-14 0
lhumerus -46.8679 -17.7878 97.599
lradius 28.256 0 0
lwrist 12.1942 0 0
lhand -14.627 -22.3701 0
lfingers 7.12502 0 0
lthumb 11.5245 7.29306 0
rclavicle -9.19379e-16 1.07344e-14 0
rhumerus -32.9454 18.3189 -83.9713
rradius 44.3713 0 0
rwrist -23.2521 0 0
rhand -31.2908 -23.7895 0
rfingers 7.12502 0 0
rthumb -4.56391 -53.7204 0
374
root 9.34151 17.0773 16.3375 6.11261 3.42212 -3.31091
lfemur -36.2143 5.37799 -17.7448
ltibia 53.599 -0 0
lfoot -14.9191 11.5573 -0.000100599
ltoes -4.71917 0 0
rfemur -11.5052 6.15748 29.4506
rtibia 27.8905 -0 0
rfoot -19.2018 3.19592 6.14617e-05
rtoes -14.9336 0 0
lowerback -5.75188 0.567293 0.322711
upperback -0.612401 0.658735 2.84781
thorax 2.5659 0.319998 2.80809
lowerneck -19.9831 -6.2413 -12.4823
upperneck 21.5435 -8.09215 12.5283
head 11.3711 -3.23828 5.41918
lclavicle -4.70043e-15 6.62618e-15 0
lhumerus -46.9863 -17.1094 97.2052
lradius 28.0199 -0 0
lwrist 11.6996 0 0
lhand -14.3091 -22.392 -0.000304441
lfingers 7.12502 0 0
lthumb 11.831 7.2525 -0.00054238
rclavicle -4.70043e-15 6.62618e-15 0
rhumerus -32.5133 18.3524 -83.8878
rradius 44.4153 -0 0
rwrist -23.2659 0 0
rhand -31.3973 -24.1907 0.00186381
rfingers 7.12502 0 0
rthumb -4.66671 -54.1192 0.00178921
375
root 9.34748 17.0835 16.4637 6.02165 3.12191 -3.49684
lfemur -36.7137 5.25992 -17.6006
ltibia 52.0372 -0 0
lfoot -14.9101 11.2992 -0.00016096
ltoes -6.1979 0 0
rfemur -10.4652 6.14358 29.7182
rtibia 27.03 -0 0
rfoot -19.1645 3.23361 9.83388e-05
rtoes -15.7154 0 0
lowerback -5.73655 0.710369 0.465049
upperback -0.545053 0.837206 2.90748
thorax 2.62045 0.409639 2.80466
lowerneck -19.9801 -6.23624 -12.5088
upperneck 21.597 -8.08289 12.5326
head 11.3907 -3.23567 5.42906
lclavicle -8.48149e-15 2.51797e-15 0
lhumerus -47.1092 -16.4318 96.8114
lradius 27.7838 -0 0
lwrist 11.205 0 0
lhand -13.9913 -22.414 -0.000487109
lfingers 7.12502 0 0
lthumb 12.1374 7.21194 -0.000867815
rclavicle -8.48149e-15 2.51797e-15 0
rhumerus -32.0811 18.3853 -83.8041
rradius 44.4593 -0 0
rwrist -23.2797 0 0
rhand -31.5037 -24.5919 0.00298213
rfingers 7.12502 0 0
rthumb -4.76953 -54.5181 0.00286277
